<svg xmlns="http://www.w3.org/2000/svg" viewBox="0 0 629.77 34.79"><defs><style>.cls-1{fill:#d7d3cd;opacity:0.11;}</style></defs><g id="Layer_2" data-name="Layer 2"><g id="Layer_1-2" data-name="Layer 1"><path class="cls-1" d="M24.09,32.35c31.82.26,63.64.29,95.46.25q102.4-.1,204.79-.07T529,32.59c31.88,0,63.76-.23,95.64.06a1.35,1.35,0,0,0,1.11-1.78,7.07,7.07,0,0,0-3.34-3.38,85,85,0,0,0-7.55-4.71,7.1,7.1,0,0,0-4.5-1.52c-2.33-.19-4.62-.25-7-.27-6.16,0-12.31-.3-18.47-.37-3.93,0-7.86-.07-11.79-.06-5.83,0-11.63.4-17.46.55-6.33.17-12.74-.1-19.08-.14l-21.31-.1Q413.1,20.45,310.9,20.6c-68.37,0-136.75,0-205.12.33-12.44.07-24.9.42-37.33-.29-9.83-.56-19.8.05-29.65.12-9,.06-18-.52-27-1.05a1.38,1.38,0,0,0-1.32,1.63A6.74,6.74,0,0,0,13.24,25a78.93,78.93,0,0,0,6.69,5.4A6.7,6.7,0,0,0,24.09,32.35Z"/><path class="cls-1" d="M14.84,25.75c8.53-.21,17.06.07,25.59.05,23.11-.06,46.21.08,69.32,0q102.42-.15,204.84-.1t204.64.08l37.52.07c9.92,0,19.83-.19,29.74-.15,9.43,0,18.86.06,28.29.17a1.31,1.31,0,0,0,1.12-1.78,7.88,7.88,0,0,0-3.54-3.52q-3.84-2.68-7.94-5a7.78,7.78,0,0,0-4.7-1.66c-2.33-.19-4.62-.25-7-.27-6.14-.06-12.29-.31-18.43-.39-3.93-.05-7.85-.08-11.78-.07-5.85,0-11.67.42-17.51.59-6.33.17-12.74-.11-19.07-.15l-21.3-.11q-102.19-.44-204.39-.28c-68.38,0-136.76,0-205.14.35-12.44.07-24.89.42-37.31-.31-9.83-.58-19.81,0-29.66.13-9,.07-17.9-.54-26.86-1A1.32,1.32,0,0,0,0,14.08a7.6,7.6,0,0,0,3.1,3.83,89,89,0,0,0,7.26,5.72A7.64,7.64,0,0,0,14.84,25.75Z"/><path class="cls-1" d="M18.86,16.65c2.58.13,5.26.47,7.84.4,2.83-.08,5.64-.53,8.47-.59,3.32-.08,6.64,0,10,0q34.68,0,69.35,0H619.71c1.11,0,2.68-1.14,2.71-2.34,0-1-1.71-3.24-2.79-3.24H114.4q-33.59,0-67.16,0c-4,0-8.17-.27-12.18-.06l-4.46.46-3.79.39c-2.75-.1-5.52-.6-8.26-.89a2.78,2.78,0,0,0-2.71,2.33C15.84,14.24,17.72,16.59,18.86,16.65Z"/><path class="cls-1" d="M21.9,21.62c8.63-.15,17.23.15,25.86.15,23.1,0,46.2.09,69.31.06q102.42-.16,204.83-.11t204.65.08c31.87,0,63.74-.14,95.62.07,4.81,0-3.45-7.24-3.26-7.06q-5-4.65-10.32-8.94a15.34,15.34,0,0,0-6.07-3.82c-2.31-.23-4.58-.31-6.91-.36-6.1-.11-12.19-.41-18.29-.49-4-.06-7.88-.08-11.83,0-5.91.07-11.79.54-17.7.73-6.29.2-12.71-.15-19-.2q-10.63-.09-21.26-.15c-68.09-.39-136.18-.38-204.27-.37-68.44,0-136.88,0-205.32.49-12.38.1-24.73.32-37.1-.46-5.71-.36-11.47-.07-17.19,0-4.18.07-8.37.13-12.55.14-3.93,0-7.89,0-11.82-.28C16.55.91,13.83.5,11.1.33,9,.2,6.86.11,4.74,0,.09-.23,7.06,7.2,7.16,7.32q4.41,5.12,9.18,9.9A15,15,0,0,0,21.9,21.62Z"/><path class="cls-1" d="M26.63,15.89l6.57-.61-.92,0q296.73.19,593.48,0c1.26,0,2.82-.74,2.76-2.27a6.58,6.58,0,0,0-1.43-2.5,6.67,6.67,0,0,0-2.17-1.89l-305.34,0-207.27,0H48.12c-5.81,0-11.72-.33-17.51.07-2,.14-3.93.4-5.9.61A3.17,3.17,0,0,0,23,10.53a1.68,1.68,0,0,0,0,2C23.58,13.92,24.89,16.05,26.63,15.89Z"/><path class="cls-1" d="M12.62,25c2.6.1,5.26.36,7.86.29,2.78-.08,5.55-.46,8.32-.52,3.33-.06,6.66,0,10,0H312.87q150.26,0,300.5,0a2.77,2.77,0,0,0,2.21-2.81c-.23-1.18-2.41-2.82-3.59-2.82q-150.25,0-300.5,0H106.76q-33.58,0-67.16,0c-4,0-8.18-.25-12.2-.07-2.64.13-5.42.79-8.06.73s-5.56-.44-8.33-.66C9.82,19,8.57,20.88,8.8,22,9.06,23.19,11.39,24.9,12.62,25Z"/><path class="cls-1" d="M18.31,34.48q47.61.32,95.21.22,102.42-.12,204.83-.08T523,34.69c22.42,0,44.84-.14,67.25-.06,9.42,0,18.84,0,28.25.15,2,0,2.75-1.69,1.58-3.21a20.46,20.46,0,0,0-4.41-2.68,20,20,0,0,0-4.82-1.83c-8.44-.4-16.93-.29-25.37-.35l-11.75-.06c-5.83,0-11.63.22-17.45.32-13.46.23-26.95-.1-40.41-.13q-102.21-.22-204.43-.15-102.54,0-205.07.18c-12.47,0-25,.34-37.42-.14-9.84-.38-19.75,0-29.6.05-9.11.06-18.2-.17-27.29-.61-1.84-.09-2.92,1.31-1.94,3a18,18,0,0,0,3.84,3A18.62,18.62,0,0,0,18.31,34.48Z"/><path class="cls-1" d="M28,21.19c8.63,0,17.27.28,25.9.27,23.11,0,46.21.1,69.31.06Q225.6,21.36,328,21.41t204.63.08l37.53.07c9.91,0,19.82-.18,29.74-.15,9.44,0,18.88.06,28.31.17,4.13.05-1.37-5.84-1.62-6.13q-3.57-3.88-7.47-7.43a9.57,9.57,0,0,0-4.65-3.09c-2.28-.22-4.51-.29-6.8-.32-6.07-.09-12.14-.37-18.21-.45-3.92,0-7.85-.08-11.77-.06-6,0-11.89.5-17.85.68-6.28.18-12.68-.13-19-.18q-10.62-.07-21.24-.13c-68.06-.35-136.14-.34-204.21-.34-68.46,0-136.92,0-205.38.43C97.71,4.65,85.34,5,73,4.17c-5.69-.37-11.43-.08-17.13,0-4.21.07-8.41.13-12.61.15-8.75,0-17.44-.7-26.17-1.22-3.9-.23.16,5.45.64,6.2q2.89,4.27,6.17,8.25A9.26,9.26,0,0,0,28,21.19Z"/><path class="cls-1" d="M15.17,20.2c8.48-.28,16.95-.15,25.44-.19,23.11-.11,46.21,0,69.32,0Q212.37,20,314.79,20,465,20,615.16,20a2.3,2.3,0,0,0,2.25-2.78,8,8,0,0,0-2.17-2.37,7.92,7.92,0,0,0-2.77-1.63q-13.08,0-26.16-.06c-23.19-.08-46.39.08-69.58.05q-102.23-.11-204.45-.07-102.52,0-205,.08c-22.34,0-44.69-.16-67,0q-13.59.07-27.17,0a2.31,2.31,0,0,0-2.47,2.59,8,8,0,0,0,2,2.54A8,8,0,0,0,15.17,20.2Z"/><path class="cls-1" d="M19.24,15.35c8.62.2,17.24.35,25.86.32,23.1-.08,46.2.09,69.31.05q102.43-.18,204.87-.11t204.61.09q18.75,0,37.51.07c9.92,0,19.85-.21,29.78-.16,9.41,0,18.83,0,28.24.2a1.42,1.42,0,0,0,1.44-1.54,6.31,6.31,0,0,0-2.42-3.74,72.33,72.33,0,0,0-6.08-5.66,6.33,6.33,0,0,0-3.9-2.14c-2.31-.17-4.6-.22-6.92-.24-6.12-.05-12.24-.26-18.37-.34q-5.86-.07-11.75-.08c-5.88,0-11.74.38-17.62.52-6.32.16-12.71-.09-19-.13l-21.28-.09Q411.3,2,309.13,2.13c-68.4,0-136.79,0-205.19.29-12.42.06-24.85.42-37.26-.25-9.85-.53-19.83,0-29.7.11A223.62,223.62,0,0,1,9.83,1.05,1.41,1.41,0,0,0,8.22,2.41a6.31,6.31,0,0,0,2,4,72.69,72.69,0,0,0,5.4,6.35A6.37,6.37,0,0,0,19.24,15.35Z"/><path class="cls-1" d="M27.17,27.07c8.67,0,17.34.23,26,.22,23.11,0,46.22.08,69.32.05q102.42-.14,204.82-.09T532,27.32c31.87,0,63.75-.21,95.62.07,1.09,0,1.53-.56,1.34-1.62a10.32,10.32,0,0,0-3.7-4.48q-4.08-3.67-8.47-7a10.33,10.33,0,0,0-5.1-2.79c-2.3-.23-4.55-.3-6.86-.34-6.11-.09-12.2-.39-18.3-.47-3.94,0-7.87-.07-11.8,0-5.92,0-11.79.51-17.7.7-6.3.19-12.72-.14-19-.19q-10.63-.09-21.26-.14c-68.09-.37-136.19-.36-204.28-.35-68.43,0-136.87,0-205.3.45-12.38.09-24.78.42-37.15-.41-5.69-.38-11.43-.09-17.14,0-4.19.07-8.38.13-12.57.15-8.82,0-17.57-.8-26.37-1.31-4.15-.24,1.19,6,1.42,6.26q3.45,4.11,7.25,7.9A9.93,9.93,0,0,0,27.17,27.07Z"/><path class="cls-1" d="M13.68,29.73c2.06-.16,4.15-.44,6.21-.51,6.28-.2,12.61.08,18.89.06,23.11-.08,46.22,0,69.33,0q102.42-.07,204.83-.06,150.2,0,300.39.06c1.38,0,2.31-1.94,1.82-3.09a7.2,7.2,0,0,0-2.35-1.93A7.29,7.29,0,0,0,610,23.17q-150.11.07-300.22-.07-102.49,0-205,.06c-22.35,0-44.69-.13-67,0-4,0-8.05,0-12.08,0-2.89,0-6-.24-8.88,0-1.84.14-3.69.38-5.53.57a2.51,2.51,0,0,0-2,2.95C9.57,27.86,12.38,29.83,13.68,29.73Z"/></g></g></svg>